<svg width="667" height="672" xmlns="http://www.w3.org/2000/svg" xmlns:xlink="http://www.w3.org/1999/xlink" overflow="hidden"><defs><clipPath id="clip0"><rect x="0" y="0" width="667" height="672"/></clipPath></defs><g clip-path="url(#clip0)"><rect x="0" y="0" width="667" height="672.168" fill="#FFFFFF"/><path d="M72.5 295.574C72.5 171.831 179.728 71.5179 312 71.5179 444.272 71.5179 551.5 171.831 551.5 295.574 551.5 419.317 444.272 519.63 312 519.63 179.728 519.63 72.5 419.317 72.5 295.574Z" stroke="#000000" stroke-width="1.333" stroke-miterlimit="8" fill="#FFFFFF" fill-rule="evenodd"/><path d="M72.5097 294.907 592.601 302.492 592.582 303.826 72.4903 296.24ZM591.318 299.14 599.257 303.256 591.202 307.139Z" fill="#FF0000"/><path d="M0.666502 6.66535 0.666605 506.197-0.666395 506.197-0.666499 6.66535ZM-3.999 7.998 0 0 3.999 7.998Z" fill="#4472C4" transform="matrix(1 0 0 -1.00025 312.5 577.842)"/><text fill="#4472C4" font-family="Times New Roman,Times New Roman_MSFontService,sans-serif" font-weight="700" font-size="27" transform="matrix(1 0 0 1.00025 275.516 618)">X</text><text fill="#4472C4" font-family="Times New Roman,Times New Roman_MSFontService,sans-serif" font-weight="700" font-size="27" transform="matrix(1 0 0 1.00025 294.845 618)">-</text><text fill="#4472C4" font-family="Times New Roman,Times New Roman_MSFontService,sans-serif" font-weight="700" font-size="27" transform="matrix(1 0 0 1.00025 303.676 618)">axis</text><text fill="#4472C4" font-family="Times New Roman,Times New Roman_MSFontService,sans-serif" font-weight="700" font-size="27" transform="matrix(1 0 0 1.00025 296.598 650)">|+</text><text fill="#4472C4" font-family="Cambria Math,Cambria Math_MSFontService,sans-serif" font-weight="700" font-size="27" transform="matrix(1 0 0 1.00025 317.592 650)">⟩</text><text fill="#FF0000" font-family="Times New Roman,Times New Roman_MSFontService,sans-serif" font-weight="700" font-size="27" transform="matrix(1 0 0 1.00025 596.002 311)">Y</text><text fill="#FF0000" font-family="Times New Roman,Times New Roman_MSFontService,sans-serif" font-weight="700" font-size="27" transform="matrix(1 0 0 1.00025 612.884 311)">-</text><text fill="#FF0000" font-family="Times New Roman,Times New Roman_MSFontService,sans-serif" font-weight="700" font-size="27" transform="matrix(1 0 0 1.00025 621.715 311)">axis</text><text fill="#4472C4" font-family="Times New Roman,Times New Roman_MSFontService,sans-serif" font-weight="700" font-size="27" transform="matrix(1 0 0 1.00025 297.51 37)">|</text><text fill="#4472C4" font-family="Times New Roman,Times New Roman_MSFontService,sans-serif" font-weight="700" font-size="27" transform="matrix(1 0 0 1.00025 303.342 37)">–</text><text fill="#4472C4" font-family="Cambria Math,Cambria Math_MSFontService,sans-serif" font-weight="700" font-size="27" transform="matrix(1 0 0 1.00025 316.672 37)">⟩</text><path d="M143.5 137.534 481.962 454.685" stroke="#000000" stroke-width="0.6665" stroke-miterlimit="8" fill="none" fill-rule="evenodd"/><path d="M0 0 338.462 317.071" stroke="#000000" stroke-width="0.6665" stroke-miterlimit="8" fill="none" fill-rule="evenodd" transform="matrix(1 0 0 -1.00025 143.5 454.685)"/><path d="M264.5 300.575C264.5 274.059 285.99 252.563 312.5 252.563 339.01 252.563 360.5 274.059 360.5 300.575 360.5 327.091 339.01 348.587 312.5 348.587 285.99 348.587 264.5 327.091 264.5 300.575Z" stroke="#000000" stroke-width="1.333" stroke-miterlimit="8" fill="#00B050" fill-rule="evenodd"/><path d="M150.75 113.855C134.251 150.731 90.9804 167.25 54.1037 150.75 17.227 134.251 0.70828 90.9804 17.2081 54.1036 33.7079 17.2269 76.9781 0.708188 113.855 17.208 131.097 24.9228 144.687 39.0086 151.778 56.5164L162.13 56.0751 150.248 81.1531 126.861 57.5792 137.091 57.143C122.27 27.8101 86.4758 16.0462 57.143 30.8674 27.8101 45.6887 16.0461 81.4827 30.8674 110.816 45.6887 140.148 81.4827 151.912 110.816 137.091 123.012 130.929 132.716 120.756 138.297 108.283Z" stroke="#000000" stroke-width="0.999753" stroke-linejoin="round" stroke-miterlimit="10" fill="#00B050" fill-rule="evenodd" fill-opacity="0.501961" transform="matrix(-0.10054 0.995179 0.99493 0.100565 236.647 211.155)"/><text fill="#00B050" font-family="Times New Roman,Times New Roman_MSFontService,sans-serif" font-weight="700" font-size="27" transform="matrix(1 0 0 1.00025 248.551 407)">+</text><text fill="#00B050" font-family="Times New Roman,Times New Roman_MSFontService,sans-serif" font-weight="700" font-size="27" transform="matrix(1 0 0 1.00025 270.378 407)">θ</text><text fill="#00B050" font-family="Times New Roman,Times New Roman_MSFontService,sans-serif" font-weight="700" font-size="18" transform="matrix(1 0 0 1.00025 284.208 413)">Z</text><path d="M482.499 461.852 496.742 468.688 491.16 471.476C492.104 497.079 464.783 528.269 426.218 545.614 459.188 527.444 480.838 499.843 479.997 477.051L474.416 479.838Z" fill="#00B050" fill-rule="evenodd"/><path d="M420.693 548.514C377.328 570.17 332.193 567.73 319.881 543.063L331.044 537.489C343.356 562.155 388.491 564.596 431.855 542.94Z" fill="#008D40" fill-rule="evenodd"/><path d="M426.218 545.614C459.188 527.444 480.838 499.843 479.997 477.051L474.416 479.838 482.499 461.852 496.742 468.688 491.16 471.476C492.052 495.665 467.659 525.059 431.855 542.94L420.693 548.514C377.328 570.17 332.193 567.73 319.881 543.063L331.044 537.489C343.356 562.155 388.491 564.596 431.855 542.94" stroke="#172C51" stroke-width="1.33307" stroke-miterlimit="8" fill="none" fill-rule="evenodd"/><path d="M181.771 0 191.459 12.4745 185.221 12.4745C174.631 35.7929 136.257 51.4835 94.0041 49.772 131.62 48.2484 163.319 33.2337 172.747 12.4745L166.51 12.4745Z" fill="#00B050" fill-rule="evenodd" transform="matrix(-0.894642 -0.446784 -0.446672 0.894866 303.633 543.069)"/><path d="M87.767 49.8983C39.2946 49.8983-1.2365e-14 27.558-1.2365e-14 6.18252e-15L12.4745 0C12.4745 27.558 51.7691 49.8983 100.242 49.8983Z" fill="#008D40" fill-rule="evenodd" transform="matrix(-0.894642 -0.446784 -0.446672 0.894866 303.633 543.069)"/><path d="M94.0042 49.7721C131.62 48.2484 163.319 33.2337 172.747 12.4746L166.51 12.4745 181.771 0 191.459 12.4745 185.221 12.4745C175.216 34.5055 140.263 49.8982 100.241 49.8982L87.767 49.8983C39.2946 49.8983-1.2365e-14 27.558-1.2365e-14 6.18252e-15L12.4745 0C12.4745 27.558 51.7691 49.8983 100.242 49.8983" stroke="#172C51" stroke-width="1.33307" stroke-miterlimit="8" fill="none" fill-rule="evenodd" transform="matrix(-0.894642 -0.446784 -0.446672 0.894866 303.633 543.069)"/><path d="M555.997 312.746 587.006 316.156 576.659 327.789C598.17 373.776 574.23 448.546 519.3 506.934 567.109 450.059 586.123 382.187 566.186 339.564L555.839 351.197Z" fill="#00B050" fill-rule="evenodd"/><path d="M514.146 512.894C451.946 582.826 367.493 609.234 325.515 571.879L335.988 560.104C377.967 597.459 462.42 571.051 524.619 501.119Z" fill="#008D40" fill-rule="evenodd"/><path d="M519.3 506.934C567.109 450.058 586.122 382.187 566.186 339.564L555.839 351.197 555.997 312.746 587.006 316.156 576.659 327.789C597.38 372.087 575.975 443.38 524.619 501.119L514.146 512.894C451.946 582.826 367.493 609.234 325.515 571.879L335.988 560.104C377.967 597.459 462.42 571.051 524.619 501.119" stroke="#172C51" stroke-width="1.33319" stroke-miterlimit="8" fill="none" fill-rule="evenodd"/><path d="M346.787 0 364.858 25.3608 349.262 25.3608C329.209 71.8524 257.449 103.56 177.322 101.334 251.604 99.2705 314.96 68.4605 333.551 25.3608L317.955 25.3608Z" fill="#00B050" fill-rule="evenodd" transform="matrix(-0.664611 -0.747228 -0.747042 0.664777 297.088 571.979)"/><path d="M169.466 101.443C75.8724 101.443 0 56.0253 0 0L15.7113 0C15.7113 56.0253 91.5837 101.443 185.177 101.443Z" fill="#008D40" fill-rule="evenodd" transform="matrix(-0.664611 -0.747228 -0.747042 0.664777 297.088 571.979)"/><path d="M177.322 101.334C251.603 99.2705 314.96 68.4605 333.55 25.3608L317.955 25.3608 346.787 0 364.858 25.3608 349.262 25.3608C329.943 70.1497 262.454 101.443 185.178 101.443L169.466 101.443C75.8724 101.443 0 56.0253 0 0L15.7113 0C15.7113 56.0253 91.5837 101.443 185.177 101.443" stroke="#172C51" stroke-width="1.33315" stroke-miterlimit="8" fill="none" fill-rule="evenodd" transform="matrix(-0.664611 -0.747228 -0.747042 0.664777 297.088 571.979)"/><path d="M300.345 509.24C203.014 519.274 117.24 433.986 108.765 318.744 101.804 224.09 149.526 135.745 225.017 103.529L226.183 90.3531 302.591 101.866 221.909 138.641 223.055 125.694C143 166.97 105.837 278.727 140.048 375.311 166.857 450.996 230.978 497.286 298.931 490.012Z" stroke="#172C51" stroke-width="1.33333" stroke-miterlimit="8" fill="#00B050" fill-rule="evenodd"/><path d="M16.1758 213.175C2.00541 116.211 83.564 27.9021 198.342 15.931 295.639 5.78305 388.247 54.0213 421.21 132.02L434.056 133.714 421.336 217.522 386.007 127.378 398.568 129.034C356.956 49.1029 245.066 12.2725 148.655 46.7714 70.9734 74.5683 24.7925 141.578 35.3532 211.175Z" stroke="#172C51" stroke-width="1.333" stroke-miterlimit="8" fill="#00B050" fill-rule="evenodd" transform="matrix(-6.12323e-17 -1.00025 -1 6.12476e-17 537.5 524.631)"/><text font-family="Times New Roman,Times New Roman_MSFontService,sans-serif" font-weight="700" font-size="27" transform="matrix(1 0 0 1.00025 379.989 119)">Z</text><text font-family="Times New Roman,Times New Roman_MSFontService,sans-serif" font-weight="700" font-size="27" transform="matrix(1 0 0 1.00025 232.641 119)">Z</text><text font-family="Times New Roman,Times New Roman_MSFontService,sans-serif" font-weight="700" font-size="27" transform="matrix(1 0 0 1.00025 498.89 464)">T</text><text font-family="Times New Roman,Times New Roman_MSFontService,sans-serif" font-weight="700" font-size="27" transform="matrix(1 0 0 1.00025 102.347 466)">T</text><text font-family="Times New Roman,Times New Roman_MSFontService,sans-serif" font-weight="700" font-size="18" transform="matrix(1 0 0 1.00025 120.176 458)">†</text><text font-family="Times New Roman,Times New Roman_MSFontService,sans-serif" font-weight="700" font-size="27" transform="matrix(1 0 0 1.00025 557.627 299)">S</text><text font-family="Times New Roman,Times New Roman_MSFontService,sans-serif" font-weight="700" font-size="27" transform="matrix(1 0 0 1.00025 44.0949 298)">S</text><text font-family="Times New Roman,Times New Roman_MSFontService,sans-serif" font-weight="700" font-size="18" transform="matrix(1 0 0 1.00025 58.9245 290)">†</text><text font-family="Times New Roman,Times New Roman_MSFontService,sans-serif" font-style="italic" font-weight="400" font-size="27" transform="matrix(1 0 0 1.00025 509.61 538)">quadrant</text><text font-family="Times New Roman,Times New Roman_MSFontService,sans-serif" font-style="italic" font-weight="400" font-size="27" transform="matrix(1 0 0 1.00025 7.39962 538)">quadrant</text><text font-family="Times New Roman,Times New Roman_MSFontService,sans-serif" font-style="italic" font-weight="400" font-size="27" transform="matrix(1 0 0 1.00025 361.787 538)">octant</text><text font-family="Times New Roman,Times New Roman_MSFontService,sans-serif" font-style="italic" font-weight="400" font-size="27" transform="matrix(1 0 0 1.00025 193.342 538)">octant</text><rect x="443" y="237.059" width="42" height="128.032" fill="#FFFFFF"/><text font-family="Times New Roman,Times New Roman_MSFontService,sans-serif" font-style="italic" font-weight="400" font-size="27" transform="matrix(6.12323e-17 1.0005 -0.99975 6.12476e-17 454.49 247)">semicircle</text><rect x="144" y="237.059" width="42" height="128.032" fill="#FFFFFF"/><text font-family="Times New Roman,Times New Roman_MSFontService,sans-serif" font-style="italic" font-weight="400" font-size="27" transform="matrix(-1.83697e-16 -1.0005 0.99975 -1.83743e-16 175.243 355)">semicircle</text><path d="M210.166 152.203 210.167 450.87 208.834 450.87 208.833 152.203ZM205.501 153.536 209.5 145.536 213.499 153.536ZM213.499 449.536 209.5 457.536 205.501 449.536Z"/><path d="M0.666502 6.66474 0.666603 305.257-0.666397 305.257-0.666498 6.66474ZM-3.999 7.998 0 0 3.999 7.998ZM3.9991 303.924 0.000104961 311.922-3.9989 303.924Z" transform="matrix(-1 0 0 1.00025 425.5 145.536)"/><text font-family="Times New Roman,Times New Roman_MSFontService,sans-serif" font-weight="700" font-size="27" transform="matrix(1 0 0 1.00025 277.189 308)">Z</text><text font-family="Times New Roman,Times New Roman_MSFontService,sans-serif" font-weight="700" font-size="27" transform="matrix(1 0 0 1.00025 295.018 308)">-</text><text font-family="Times New Roman,Times New Roman_MSFontService,sans-serif" font-weight="700" font-size="27" transform="matrix(1 0 0 1.00025 303.849 308)">axis</text></g></svg>